<svg xmlns="http://www.w3.org/2000/svg" viewBox="0 0 256 256"><defs><radialGradient id="sh" cx="0.5" cy="0.5" r="0.5"><stop offset="0" stop-color="#2B1A10" stop-opacity="0.3"/><stop offset="0.6" stop-color="#2B1A10" stop-opacity="0.12"/><stop offset="1" stop-color="#2B1A10" stop-opacity="0"/></radialGradient><filter id="bl" x="-20%" y="-20%" width="140%" height="140%"><feGaussianBlur stdDeviation="2.4"/></filter><linearGradient id="gl" x1="0" y1="0" x2="1" y2="0"><stop offset="0" stop-color="#FFFFFF" stop-opacity="0.75"/><stop offset="0.3" stop-color="#FFFFFF" stop-opacity="0.12"/><stop offset="0.8" stop-color="#FFFFFF" stop-opacity="0"/><stop offset="1" stop-color="#FFFFFF" stop-opacity="0.4"/></linearGradient><linearGradient id="mk" x1="0" y1="0" x2="0" y2="1"><stop offset="0" stop-color="#FFFBF1"/><stop offset="1" stop-color="#EADCC0"/></linearGradient><radialGradient id="ic" cx="0.35" cy="0.25" r="0.8"><stop offset="0" stop-color="#FFFFFF"/><stop offset="0.7" stop-color="#EEF6FC"/><stop offset="1" stop-color="#BFD6E8"/></radialGradient><linearGradient id="gm" x1="0" y1="0" x2="1" y2="1"><stop offset="0" stop-color="#D98A3E"/><stop offset="0.5" stop-color="#9A4A17"/><stop offset="1" stop-color="#5E280B"/></linearGradient><linearGradient id="ft" x1="0" y1="0" x2="1" y2="0"><stop offset="0" stop-color="#E6F3F7"/><stop offset="1" stop-color="#AFCBD6"/></linearGradient></defs><g transform="matrix(1.215 0 0 1.215 -27.5 -39.0)"><ellipse cx="128" cy="226" rx="64" ry="10" fill="url(#sh)"/><path d="M116 196h24l4 18h-32z" fill="url(#ft)"/><ellipse cx="128" cy="218" rx="40" ry="9" fill="#A9C6D1"/><ellipse cx="128" cy="215" rx="40" ry="9" fill="url(#ft)"/><path d="M58 118q2 76 70 82q68-6 70-82z" fill="#E6F2F6"/><path d="M64 124q4 66 64 72q60-6 64-72z" fill="url(#mk)"/><path d="M64 132q64 14 128 0" fill="none" stroke="#fff" stroke-width="3" opacity=".7"/><g fill="none" stroke="#4CB050" stroke-width="6" stroke-linecap="round"><path d="M84 150q8-6 16 0t16 0"/><path d="M120 158q8-6 16 0t16 0"/><path d="M152 148q8-6 16 0"/><path d="M96 170q8-6 16 0t16 0"/><path d="M136 176q8-6 16 0"/><path d="M112 186q6-5 12 0t12 0"/><path d="M76 164q6-5 12 0"/><path d="M166 162q6-5 12 0"/></g><g fill="none" stroke="#B9F09A" stroke-width="1.6" stroke-linecap="round" opacity=".9" transform="translate(-1 -2)"><path d="M84 150q8-6 16 0t16 0"/><path d="M120 158q8-6 16 0t16 0"/><path d="M152 148q8-6 16 0"/><path d="M96 170q8-6 16 0t16 0"/><path d="M136 176q8-6 16 0"/><path d="M112 186q6-5 12 0t12 0"/><path d="M76 164q6-5 12 0"/><path d="M166 162q6-5 12 0"/></g><g fill="#7B1E2B"><ellipse cx="104" cy="182" rx="4" ry="3"/><ellipse cx="150" cy="186" rx="4" ry="3"/><ellipse cx="170" cy="150" rx="4" ry="3"/></g><path d="M58 118q2 76 70 82q68-6 70-82z" fill="url(#gl)"/><path d="M72 136q4 30 20 46" fill="none" stroke="#fff" stroke-width="6" stroke-linecap="round" opacity=".6"/><path d="M60 120c-6-18 10-30 22-28c0-26 22-42 46-42s46 16 46 42c14-2 28 10 22 28c-40 10-96 10-136 0z" fill="url(#ic)"/><g fill="#fff" opacity=".9"><circle cx="96" cy="76" r="3"/><circle cx="110" cy="98" r="2"/><circle cx="148" cy="84" r="2.5"/><circle cx="80" cy="104" r="2"/><circle cx="168" cy="106" r="2"/></g><path d="M98 66c14-14 44-16 60 0c6 6 4 14-2 16c-4 10 2 22-4 24c-6 2-6-10-8-18c-8 2-12 10-18 8c-4-2 0-8-4-10c-6 2-8 16-14 14c-6-2 0-14-4-18c-8-2-10-10-6-16z" fill="url(#gm)"/><path d="M108 66c10-8 26-10 38-4" fill="none" stroke="#FFD29A" stroke-width="3.5" stroke-linecap="round" opacity=".9"/><g fill="#FFD29A" opacity=".8"><ellipse cx="146" cy="92" rx="1.6" ry="4"/><ellipse cx="102" cy="90" rx="1.6" ry="3.5"/></g><g><ellipse cx="120" cy="56" rx="7" ry="5.5" fill="#8E2233"/><ellipse cx="136" cy="58" rx="7" ry="5.5" fill="#7A1C2B"/><ellipse cx="128" cy="48" rx="7" ry="5.5" fill="#A12A3C"/><g fill="#fff" opacity=".7"><circle cx="118" cy="54" r="1.6"/><circle cx="134" cy="56" r="1.6"/><circle cx="126" cy="46" r="1.6"/></g></g><ellipse cx="84" cy="84" rx="7" ry="14" transform="rotate(25 84 84)" fill="#fff" opacity="0.7" filter="url(#bl)"/></g></svg>
