<svg xmlns="http://www.w3.org/2000/svg" viewBox="0 0 256 256"><defs><radialGradient id="sh" cx="0.5" cy="0.5" r="0.5"><stop offset="0" stop-color="#2B1A10" stop-opacity="0.3"/><stop offset="0.6" stop-color="#2B1A10" stop-opacity="0.12"/><stop offset="1" stop-color="#2B1A10" stop-opacity="0"/></radialGradient><filter id="bl" x="-20%" y="-20%" width="140%" height="140%"><feGaussianBlur stdDeviation="2.4"/></filter><radialGradient id="sun" cx="0.45" cy="0.35" r="0.7"><stop offset="0" stop-color="#FFE8A3"/><stop offset="0.55" stop-color="#FFB56E"/><stop offset="1" stop-color="#FF7F86"/></radialGradient><linearGradient id="tw" x1="0" y1="0" x2="1" y2="0"><stop offset="0" stop-color="#FFFFFF"/><stop offset="0.4" stop-color="#C9D5E6"/><stop offset="1" stop-color="#667899"/></linearGradient><linearGradient id="bs" x1="0" y1="0" x2="0" y2="1"><stop offset="0" stop-color="#E6ECF4"/><stop offset="1" stop-color="#8C9BB3"/></linearGradient></defs><g transform="matrix(1.031 0 0 1.031 -4.0 5.8)"><circle cx="128" cy="118" r="86" fill="url(#sun)"/><circle cx="128" cy="118" r="86" fill="none" stroke="#fff" stroke-opacity=".4" stroke-width="3"/><g fill="#fff" opacity=".75"><ellipse cx="62" cy="100" rx="20" ry="7"/><ellipse cx="198" cy="78" rx="15" ry="5.5"/></g><ellipse cx="128" cy="224" rx="90" ry="11" fill="url(#sh)"/><path d="M72 214L73 163L74 160L74.9 129L77 126L77.8 103L80 100L80.6 83L83.5 80L84 69L87 66L87.4 59L90 56L90.2 51L92.5 48L92.6 43L94 41L96 37L98 41L99.4 43L99.5 48L101.8 51L102 56L104.6 59L105 66L108 69L108.5 80L111.4 83L112 100L114.2 103L115 126L117.1 129L118 160L119 163L120 214z" fill="url(#tw)"/><g stroke="#5E6F8C" stroke-opacity=".28" stroke-width="1.2"><path d="M81 212V163"/><path d="M88 212V103"/><path d="M96 212V69"/><path d="M104 212V103"/><path d="M111 212V163"/></g><g fill="#F8FBFF" opacity=".95"><rect x="71.5" y="160" width="49" height="3" rx="1.5"/><rect x="74.5" y="126" width="43" height="3" rx="1.5"/><rect x="77.5" y="100" width="37" height="3" rx="1.5"/><rect x="81" y="80" width="30" height="3" rx="1.5"/><rect x="84.5" y="66" width="23" height="3" rx="1.5"/><rect x="87.5" y="56" width="17" height="3" rx="1.5"/></g><g fill="#FFD36B"><rect x="85" y="196" width="5" height="3" rx="1"/><rect x="92" y="182" width="5" height="3" rx="1"/><rect x="99" y="170" width="5" height="3" rx="1"/><rect x="88" y="146" width="5" height="3" rx="1"/><rect x="95" y="136" width="5" height="3" rx="1"/><rect x="102" y="112" width="5" height="3" rx="1"/><rect x="91" y="90" width="5" height="3" rx="1"/></g><path d="M96 40V8" stroke="#E6EDF7" stroke-width="2.6" stroke-linecap="round"/><circle cx="96" cy="24" r="2.6" fill="#fff"/><path d="M136 214L137 163L138 160L138.9 129L141 126L141.8 103L144 100L144.6 83L147.5 80L148 69L151 66L151.4 59L154 56L154.2 51L156.5 48L156.6 43L158 41L160 37L162 41L163.4 43L163.5 48L165.8 51L166 56L168.6 59L169 66L172 69L172.5 80L175.4 83L176 100L178.2 103L179 126L181.1 129L182 160L183 163L184 214z" fill="url(#tw)"/><g stroke="#5E6F8C" stroke-opacity=".28" stroke-width="1.2"><path d="M145 212V163"/><path d="M152 212V103"/><path d="M160 212V69"/><path d="M168 212V103"/><path d="M175 212V163"/></g><g fill="#F8FBFF" opacity=".95"><rect x="135.5" y="160" width="49" height="3" rx="1.5"/><rect x="138.5" y="126" width="43" height="3" rx="1.5"/><rect x="141.5" y="100" width="37" height="3" rx="1.5"/><rect x="145" y="80" width="30" height="3" rx="1.5"/><rect x="148.5" y="66" width="23" height="3" rx="1.5"/><rect x="151.5" y="56" width="17" height="3" rx="1.5"/></g><g fill="#FFD36B"><rect x="149" y="196" width="5" height="3" rx="1"/><rect x="156" y="182" width="5" height="3" rx="1"/><rect x="163" y="170" width="5" height="3" rx="1"/><rect x="152" y="146" width="5" height="3" rx="1"/><rect x="159" y="136" width="5" height="3" rx="1"/><rect x="166" y="112" width="5" height="3" rx="1"/><rect x="155" y="90" width="5" height="3" rx="1"/></g><path d="M160 40V8" stroke="#E6EDF7" stroke-width="2.6" stroke-linecap="round"/><circle cx="160" cy="24" r="2.6" fill="#fff"/><path d="M117 148L128 130L139 148" fill="none" stroke="#B5C2D4" stroke-width="3.2" stroke-linejoin="round"/><rect x="114" y="120" width="28" height="9" rx="2" fill="#EEF3F9"/><path d="M114 129h28" stroke="#667899" stroke-width="2"/><rect x="118" y="123" width="20" height="2.5" rx="1" fill="#FFD36B"/><rect x="54" y="206" width="148" height="18" rx="8" fill="url(#bs)"/><rect x="60" y="208" width="136" height="4" rx="2" fill="#fff" opacity=".8"/><ellipse cx="84" cy="128" rx="3.5" ry="44" transform="rotate(0 84 128)" fill="#fff" opacity="0.6" filter="url(#bl)"/><ellipse cx="148" cy="128" rx="3.5" ry="44" transform="rotate(0 148 128)" fill="#fff" opacity="0.55" filter="url(#bl)"/></g></svg>
